<svg xmlns="http://www.w3.org/2000/svg" viewBox="0 0 62.177 105.833">
  <g stroke="#000" fill="none" stroke-width=".15345813">
    <path d="M31.39 1.632c1.295-.01 3.3 2.33 3.836 2.967C43.166 14.038 45.66 42.87 45.66 42.87v3.93l-.107 24.083-.08 18.517-28.54.052c0-6.246-.005-12.493-.01-18.74-.01-9.102-.026-18.204-.038-27.306 0 0 1.39-29.632 10.343-38.811.712-.731 3.038-2.97 4.162-2.964z"/>
    <path stroke-width=".153458" d="M16.879923 70.417084v18.993253L1.3570019 91.26184l.2670866-12.049621zm28.69189-.02278v18.993261L60.82665 90.71035V79.189446zM26.696357 99.825289c.05481-6.868383 2.97383-8.983255 4.590303-10.443665l-10.081527.004c.498296 2.504974 3.919597 5.174306 5.491224 10.439703z"/>
    <path d="M41.48 89.429l-9.746.04.002.002s2.543 1.672 3.914 5.764c.42 1.363.701 3.068.716 5.247.854-5.017 4.175-7.48 5.114-11.052zm-5.83 5.806c-.61-2.326-2.833-5.391-3.914-5.764-2.03.01-4.184.03-6.397-.03a10.26 10.26 0 00-.196 2.057c.1 3.935 3.892 5.924 5.702 12.03 0 0 3.175-4.391 4.804-8.293zM31.07 3.573c5.074.456 7.7 10.538 7.7 10.538s-13.375.257-15.528.137c0 0 2.966-10.24 7.828-10.675zm9.018 13.91s-16.08.225-18.234.155c-.18-.126.624-1.918.624-1.918l16.961-.22zm.975 3.143s-17.63.225-19.99.156c-.199-.127.283-1.92.283-1.92l19.263-.257z"/>
    <path d="M19.178 25.26c14.913 14.17 11.826 31.67 17.22 49.01 2.532 7.078 8.347 8.27 9.073 9.88" stroke="red"/>
  </g>
</svg>